<?xml version="1.0" encoding="utf-8"?>
<!-- Generator: Adobe Illustrator 19.2.0, SVG Export Plug-In . SVG Version: 6.00 Build 0)  -->
<svg version="1.1" id="Layer_1" xmlns="http://www.w3.org/2000/svg" xmlns:xlink="http://www.w3.org/1999/xlink" x="0px" y="0px"
	 viewBox="0 0 501.7 503.3" style="enable-background:new 0 0 501.7 503.3;" xml:space="preserve">
<g id="Elephant">
	<g>
		<path d="M356.4,456.1c-5.1,0-10.4-0.6-15.6-1.8c-24.7-5.5-43.1-20.4-54.5-44.2c-7.1-14.8-13.5-31-12.3-48.8
			c0.1-1.8-0.3-3.8-0.8-5.9c-0.7-3-1.4-6.4-0.9-10.1c0.7-5,1.2-10.1,1.7-15.1c1.2-12,2.4-24.3,6.1-36.3c4.7-15,10.2-30.9,19.5-45
			c6.4-9.7,16-15.2,28.5-16.4c0.5,0,1-0.1,1.5-0.1c-1.1-0.9-2.6-1.6-4.2-2.4c-2-1-4.2-2.1-6.2-3.7c0,0-0.1-0.1-0.2-0.1
			c-1-0.6-4.1-2.5-3.9-6.9l0.2-3.9l3.8-0.5c0.5-0.1,1-0.1,1.4-0.1c2.9,0,5.1,1.3,6.7,2.2c0.6,0.4,1.3,0.7,1.7,0.9
			c0.9,0.2,1.8,0.4,2.9,0.4c3.5,0,7-1.5,8.2-3.5c4-6.6,6.3-13.9,8.6-22c1.7-5.9,2.1-11.9,2.6-18.3c0.5-6.3,0.9-12.8,2.6-19.3
			c1.1-4,0.2-8.4-0.8-13.1c-0.6-3.1-1.3-6.3-1.5-9.7c-0.5-10-2.2-19.3-5.1-27.8c-1.5-4.4-3.2-8.8-4.8-13.1c-1.3-3.5-2.7-7.1-4-10.7
			c-4.3-12.1-12.1-23-25.2-35.3c-10.2-9.7-19.6-16.1-29.4-20.1c-10.1-4.2-20.7-6.3-31.5-6.3c-7,0-14.2,0.9-21.5,2.6
			c-19.9,4.8-33.2,13.2-41.7,26.4c-1.9,2.9-4.5,5-6.7,6.8c-2.2,1.8-4.3,3.5-5.4,5.6c-0.6,1.1-1.2,2-1.8,2.8c-1,1.3-1.2,1.7-1.1,2.2
			c0.2,2.7-1.1,5.6-4,8.7c-6.4,6.9-9.2,15.5-12.1,24.6c-0.4,1.3-0.8,2.5-1.2,3.8c-1.3,3.8-2.1,7.6-3.1,11.7c-1,4.4-2.1,8.9-3.6,13.4
			c-0.4,1.1-0.4,2.6-0.5,3.7c0,2.7-0.1,5.4-0.1,8.1c-0.1,7.9-0.3,16.1-0.1,24.1c0.4,16.3,4.5,32.9,12.4,51c0.6,1.3,0.9,1.8,2.1,2.2
			l10.2,3.6l-9.7,5c-1.8,0.9-3.5,1.4-5.1,1.4c-2.4,0-4.2-0.9-5.4-1.9c0,0,0,0.1-0.1,0.1c-0.5,1.1-1.1,2.2-1.6,3.3
			c-2.4,4.9-4.9,10-8.1,14.7c-7.9,11.5-18.3,21-30.9,28.1c-11.2,6.4-23.4,9.6-36.2,9.6c-3.4,0-6.8-0.2-10.2-0.7
			c-5.2-0.7-10.7-3-15.9-6.6c-4.1-2.9-5.6-7.2-4-11.6c1.7-4.4,5.4-7,10.2-7l0.7,0c0.7,0,1.4,0,2.1,0.1c10,0.6,17.3-5.2,17.9-14.2
			c1.1-17.1-6.1-29.9-22-39.1c-11.5-6.6-23.5-13.5-30.3-25.4c-6.6-11.5-12.4-23.9-6.1-39c2.3-5.4,5.4-10,8.4-14.5
			c1.4-2,2.6-3.9,3.8-5.8c0.5-0.8,1-1.6,1.5-2.3c1.4-2,2.6-3.8,2.9-5.8c0.4-3,1.6-10.9-13.1-14.4c-2.1-0.5-3.9-1.2-5.8-1.9
			c-2.7-1-5-1.9-7.4-1.9c-0.5,0-0.9,0-1.4,0.1c-2.8,0.4-5.2-0.5-6.6-2.6c-1.3-2-1.4-4.6-0.1-7.6c5.1-12.6,13.6-23.4,26-33.2
			c6.4-5,14-9,23.2-12c8.3-2.7,16.8-3.9,24.2-3.3c21.4,1.8,38.8,9.4,51.7,22.6c7.4,7.5,13.4,16.1,17.9,25.5c2-5,4.5-9.7,6.9-14.2
			c2.7-5.1,5.3-9.9,7.1-15c1.3-3.5,4-5.3,5.9-6.6c0.9-0.6,1.8-1.2,2.2-1.7c12.6-16.5,26.7-27.7,43.2-34.2C223.6,2.9,238,0,251.9,0
			c6.9,0,13.8,0.7,20.6,2.1c12.3,2.5,23.3,7,32.7,13.1c10.5,6.9,20.3,15.7,30.7,27.7c10,11.6,16.4,24.8,21.6,37.8
			c5.5-12.4,13.8-23,24.8-31.7c10-8,22.5-13.1,37.1-15.3c2.9-0.4,6-0.7,9.4-0.7c4.5,0,8.9,0.4,13.2,0.7c2.4,0.2,4.9,0.4,7.2,0.5
			c3.7,0.2,6.5,2,8.7,3.4c1,0.6,1.9,1.3,2.8,1.6c16.7,7,27,19.6,35.7,32.1c4.4,6.4,6.5,10.6,4.9,14.5c-1.6,4-5.8,4.9-10.7,5.9
			c-1.5,0.3-3.2,0.7-5.1,1.1c-1.6,0.4-3.1,0.7-4.7,1c-4.4,0.9-8.2,1.6-11,4.2c-5.3,4.9-5.8,9.3-1.7,15.6c1.5,2.3,3.2,4.4,5,6.7
			c3,3.8,6.2,7.8,8.3,12.5c5.9,13.2,4.7,27.1-3.5,41.2c-7.8,13.3-20.4,21.1-33.9,28.5c-6.2,3.4-14,9.6-16.5,19.8
			c-0.4,1.8-1,3.5-1.5,5.1c-0.5,1.4-0.9,2.7-1.2,4.1c-2,8,1.5,15,5.6,21.2c1.2,1.8,4.3,2.1,6,2.1c1.9,0,3.8,0,5.7,0
			c1.1,0,2.2,0,3.3,0c4.7,0,8.4,2.3,10.5,6.4c2.8,5.5-1.5,9.3-3.1,10.8l-0.3,0.3c-8.2,7.5-18.6,8.4-26.8,8.4l-0.6,0
			c-13.6-0.1-25.3-4.8-35.8-9.8c-15.2-7.3-24.4-19.3-33.4-30.9c-0.8-1.1-1.7-2.2-2.5-3.3c-2.8-3.7-3.9-8.2-4.7-12
			c-1.6,1.3-3.3,2.2-4.9,2.9c1.2,1.9,2,4,1.9,6.4c-0.1,3.7-2.3,6.6-5,9.1c0.5,0.3,1,0.6,1.5,0.9c2.5,1.5,4.8,2.9,7.2,3.4
			c8.9,1.9,11.3,7.2,11.7,11.3c0.8,7.5-5.5,9.8-8.6,10.9c-0.4,0.1-0.8,0.3-1.2,0.4c-5.1,2-10.2,3-15.1,3c-9.6,0-18.5-4-26.2-11.6
			c-1.5,2.6-2.6,5.4-3.7,8.4l-0.5,1.3c-7.4,19.1-11.7,36.2-13.2,52.1c-1.4,14.4-2.4,33.2,1.7,51.9c3.8,17.2,10.4,31.1,20.2,42.4
			c9.6,11.1,21.9,17.1,36.5,18c1.8,0.1,3.5,0.1,5.1,0.1c11.2,0,19.8-2.3,27.2-7.2c21-14.1,27.4-27.7,22.9-48.4
			c-1.5-7-8.9-11.1-13.1-12.9c-3.2-1.4-8.1-3.2-12.9-3.2c-2.8,0-5.4,0.6-7.8,1.8c-6.2,3-10.2,7.3-10.7,11.6
			c-0.5,4.5,3.1,8.3,6.3,10.8c0.4,0.3,1.5,0.7,2.9,0.7c1.7,0,2.8-0.5,3.1-0.9c2.3-2.5,4.7-3.7,7.2-3.7c2.2,0,5.3,1,7.7,5.5
			c5,9.6-1.2,18.1-3.5,21.3c-4.2,5.7-9.2,6.9-12.6,6.9c-2.2,0-4.4-0.5-6.7-1.4l-17.8-7.1l19.1-1.9c3.1-0.3,4.4-1.3,5.4-3.6
			c-1,0.1-1.9,0.2-2.9,0.2c-4.3,0-8.1-1.3-11.5-4.1c-7.3-6-11.3-12.5-12.2-20.1c-1.7-14.7,7.2-26.4,23.9-31.2
			c3.8-1.1,7.7-1.6,11.7-1.6c14.7,0,28.8,7.4,37.8,19.8c13.3,18.3,7.9,35.4,1,49.7c-6.1,12.5-16,22.4-30.2,30.2
			C379.4,453,368,456.1,356.4,456.1z M283.3,365.7c0,14.3,5.5,27.8,11.5,40.4c10.2,21.4,26,34.1,48,39c4.6,1,9.1,1.5,13.5,1.5
			c10,0,19.9-2.7,29.5-7.9c11.6-6.4,19.9-14.3,25.2-24c-5.4,9.3-13.8,16.1-22.3,21.8c-8.8,5.9-19.4,8.8-32.4,8.8
			c-1.8,0-3.7-0.1-5.6-0.2c-17.2-1-31.7-8.1-43.1-21.2c-10.9-12.5-18.2-27.8-22.3-46.6C284.5,373.5,283.8,369.6,283.3,365.7z
			 M415.8,379.2c2.3,11.3,1.5,20.6-1.4,28.4C418.5,397.8,420,388.7,415.8,379.2z M282.2,342.3c-0.2,1.5-0.4,2.9-0.6,4.4
			c-0.3,1.9,0.1,3.9,0.6,6.1C282.2,349.2,282.2,345.7,282.2,342.3z M423.7,271.4c0.5,0,1,0,1.5,0l0.5,0c6.9,0,14.6-0.7,20.5-6
			l0.4-0.4c0.1-0.1,0.2-0.2,0.3-0.3c-0.4-0.3-0.8-0.4-1.4-0.4c-1.1,0-2.2,0-3.2,0c-2,0-4,0.1-6,0c-8-0.1-11.9-3.5-13.8-6.4
			c-5-7.7-9.8-17.1-6.9-28.7c0.4-1.6,0.9-3.2,1.4-4.7c0.5-1.5,1-3,1.3-4.4c2.6-10.7,9.8-19.6,21.1-25.8c12.7-7,23.7-13.7,30.3-25
			c3.7-6.3,5.7-12.3,5.9-18.2c-0.4,4.3-1.6,8.8-3.6,13.5c-5.8,13.5-17.7,21.1-28.6,26.9c-15.6,8.2-25.1,19.2-28.8,33.6
			c-3.4,13.2-1,24.7,7.3,34.2c0.2,0.3,0.9,0.6,1.6,1c1,0.6,2.3,1.3,3.6,2.4l6.9,5.9l-8.8,2.3C424.8,271.2,424.2,271.3,423.7,271.4z
			 M55,265.4c0.1,0.1,0.3,0.3,0.6,0.5c3.9,2.7,8,4.5,11.7,4.9c3.9,0.5,7.8,0.7,11.5,0.6c-0.3-0.1-0.6-0.2-0.9-0.3l-7.3-2.2l5.2-5.6
			c10.9-11.6,14.9-22.3,12.5-33.7c-3.5-17.2-14.2-30.4-31.8-39.2c-11.3-5.7-19.2-12.3-24.6-20.6c0.3,0.6,0.7,1.2,1,1.7
			c5.6,9.7,16.4,15.9,26.8,21.9c19.1,11,28.1,27.1,26.7,47.9c-0.9,13.6-11.5,23.1-25.8,23.1c-0.7,0-1.4,0-2.1-0.1
			c-0.6,0-1.2-0.1-1.8-0.1l-0.4,0C55.5,264.4,55.2,264.6,55,265.4C55,265.3,55,265.3,55,265.4z M336,263.8c3.8,0.1,7.8-0.7,12-2.4
			c0.5-0.2,0.9-0.4,1.4-0.5c0.8-0.3,1.9-0.7,2.5-1c0,0,0,0,0,0c-0.1-0.8-0.2-2.2-4.3-3.1c-2.4-0.5-4.5-1.4-6.4-2.5
			c1,2.1,1,4.3,0,6.2C340,262.5,338.2,263.7,336,263.8z M328.3,262.5c2,0.7,4.1,1.1,6.2,1.3c-0.5-0.1-0.9-0.2-1.4-0.3
			C331.6,262.9,330,262.7,328.3,262.5z M23.4,80.9c1,0.2,2.1,0.4,3.1,0.5c2.6,0.4,5.2,0.9,7.9,1.7c7.3,2.4,13.6,8.9,16.3,16.8
			c2.6,7.7,1.6,15.6-2.8,22.1c-2.1,3.1-4.2,6.1-6.3,9.2c-1.4,2-2.7,4-4.1,6c-4.6,6.8-4.5,14.4,0.4,23.9c4.4,8.6,11.5,15,22.9,20.7
			c20,10.1,32.7,25.9,36.8,45.7c2.4,11.9-0.4,23.3-8.7,34.6c3.3-0.6,6.4-1.8,8.9-2.9c14.1-6.1,24.4-13.4,31.6-22.4
			c4-5,7.9-10.9,11.8-17.8c0-0.1,0-0.2,0.1-0.3c0.6-2.7,1.9-4.1,3.2-4.9c-1.1-2.6-1.9-5.2-2.5-7.7c-1.2-4.8-2.7-9.6-4.2-14.3
			c-1.2-3.7-2.4-7.6-3.5-11.4c-0.7-2.7-0.3-5,0-6.9c0.2-1,0.3-1.9,0.2-2.6c-1.4-9.2-1.5-18.4-1.6-27.4c-0.1-6.4-0.1-13.1-0.7-19.5
			c-0.5-5.1,0.5-10.3,2.9-15.4c1.4-3,1.3-4.5-0.5-7c-4.3-5.8-9.6-12.9-9.7-22.2c-0.1-0.1-0.2-0.2-0.3-0.4
			c-13.3-14.1-25.1-21.8-39.6-25.6c-4.4-1.2-8.6-1.7-13-1.7c-10.9,0-21.2,3.7-29.7,7.4c-7.2,3.1-13.4,7.7-19.1,14.1
			c0.8,1.5,1.1,3,1,4.6C24,79.2,23.8,80.1,23.4,80.9z M430.6,51.6c-10.9,0-22.4,3.8-35.3,11.5c-11.2,6.8-19.8,16.1-24.8,26.9
			c-3.6,7.8-6.8,16-3.5,23.7c0.1,0.3,0.4,0.7,0.7,1.2c0.9,1.3,2.1,3.1,2.4,5.7c0.3,2.8,0,5.5-0.2,8c-0.5,4.4-0.6,7.3,1.1,10
			c1.5,2.3,0.8,5.1-0.6,7c-0.8,1-0.8,2.3-0.8,4.6c0,0.6,0,1.3,0,1.9c0,1.7,0,3.3,0.1,5.1c0.1,4.2,0.3,8.5-0.8,12.8
			c-0.8,3.2-1.5,6.6-2.1,9.9c-1.3,6.6-2.6,13.4-5.2,20c-3.2,8.1-4,13.6,0.1,21.1c9.9,18.2,23.6,30.8,41.9,38.5
			c3.2,1.3,5.9,2.2,8.5,2.7c-8.1-11.2-10.3-24.7-6.5-39.3c4.4-16.8,15.7-30.1,33.6-39.5c9.4-5,19.7-11.5,24.3-22.2
			c3.9-9.1,3.9-16.8,0.2-24.2c-1.2-2.4-2.9-4.7-4.6-7c-2.9-3.9-5.9-8-7.5-13.4c-3.5-11.8-0.1-22.6,9.3-29.8
			c4.7-3.6,9.9-4.6,14.8-5.6c0.5-0.1,0.9-0.2,1.4-0.3c-0.9-1.6-1.4-3.2-1.3-4.9c0.1-1.5,0.6-2.8,1.4-4c-9.8-9.9-22.7-16.7-37.5-19.5
			C436.6,51.9,433.5,51.6,430.6,51.6z M320.4,250.1c0.1,0.1,0.3,0.2,0.4,0.4c1.8,1.7,4.1,2.1,7.5,2.5c-1-1.3-2.1-2.6-3.1-3.9
			l-0.9-1.1l-0.1,0C323.2,248.6,321.9,249.3,320.4,250.1C320.5,250.1,320.5,250.1,320.4,250.1z M359.9,120c0.3,2.2,0.6,4.3,0.8,6.5
			c0.2-1.8,0.3-3.5,0.1-5c0-0.2-0.5-0.9-0.8-1.4C359.9,120.1,359.9,120,359.9,120z M143.4,113.3c-1.2,2.7-1.9,5.3-2,7.9
			C142.2,118.6,142.8,116,143.4,113.3z M351.7,91.5c1.3,3.3,2.5,6.7,3.7,10.1c0.3,0.9,0.6,1.8,0.9,2.7c0.1-0.9,0.2-1.8,0.3-2.7
			l-3-6.2c-0.4-0.9-0.8-1.6-1.2-2.3C352.2,92.5,351.9,92,351.7,91.5z M134.7,83.1c0.6,2.5,1.8,5,3.4,7.5c-0.3-0.6-0.5-1.1-0.7-1.7
			C136.5,87,135.6,85,134.7,83.1z M485.7,76.6c0.6,0.5,1.2,1,2,1.6c0.4,0.4,0.9,0.7,1.4,1.2l2.4,2c-0.5-1-1.4-2.5-2.9-4.6
			c-0.5-0.7-1-1.4-1.5-2.2C486.7,75.4,486.2,76,485.7,76.6z M13.5,76.5c-0.5,0.9-1,1.8-1.5,2.8l0.3-0.2c0.6-0.4,1.5-1.1,2.1-1.6
			c-0.1-0.1-0.2-0.2-0.3-0.3C13.8,77,13.6,76.7,13.5,76.5z M251.9,9.4c-12.7,0-25.9,2.7-39.2,8c-15.1,6-27.5,15.9-39.2,31.2
			c-1.4,1.8-3.1,3-4.5,3.9c-1.3,0.9-2.1,1.4-2.3,1.9c-2,5.7-4.9,11-7.6,16.2c-1.3,2.4-2.6,4.8-3.7,7.2c1.9-3.5,4.2-6.9,7.1-10
			c0.9-1,1.3-1.7,1.5-2c-0.1-3.7,1.7-6.3,2.9-8c0.4-0.5,0.8-1.1,1-1.5c2-3.9,5.1-6.5,7.9-8.7c1.9-1.6,3.7-3,4.8-4.7
			c9.8-15.1,25.3-25,47.4-30.4c8-1.9,15.9-2.9,23.7-2.9c12,0,23.8,2.4,35.1,7c11,4.5,21.2,11.5,32.3,22c0.6,0.6,1.2,1.1,1.7,1.7
			c-6.9-7-13.6-12.6-20.6-17.2c-8.4-5.5-18.3-9.5-29.5-11.8C264.4,10.1,258.1,9.4,251.9,9.4z M71.9,42.7c5.1,0,10.3,0.7,15.4,2
			c13.2,3.5,23.6,9.9,31.9,16.8c0,0,0,0,0,0C107.9,50,92.5,43.3,73.4,41.7c-6.1-0.5-13.3,0.5-20.4,2.8c-5.2,1.7-9.7,3.7-13.8,6.1
			C48.5,46.7,59.6,42.7,71.9,42.7z M420.2,43.1c-12.7,2-23.5,6.5-32.1,13.3c-0.2,0.1-0.4,0.3-0.5,0.4c1-0.6,1.9-1.2,2.9-1.8
			C400.9,48.7,410.7,44.7,420.2,43.1z M441.3,43.2c4.5,0.9,8.9,2.1,13.1,3.6c-0.6-0.4-1.2-0.7-1.7-1.1c-1.8-1.2-2.9-1.9-4.1-1.9
			C446.1,43.6,443.7,43.4,441.3,43.2z"/>
	</g>
	<g>
		<path d="M349.3,503.3c-8.1,0-16.3-0.7-24.2-1.9c-12.1-2-22.9-5.5-33.2-10.7c-12.4-6.3-23.6-14.4-33.2-24.1
			c-8.2-8.2-15.5-17-21.5-26c-7.5-11.1-13.3-23.8-18-34c-3-6.6-5.3-13.5-7.6-20.1c-1.7-5-3.4-10.1-5.4-15
			c-2.5-6.2-3.8-12.8-5.1-19.1c-0.4-2.2-0.9-4.5-1.4-6.8c-1.8-8-2.7-16-3.7-23.8c-0.6-5.1-1.2-10.5-2.1-15.6
			c-2.1-12.6-2.3-25.2-2.4-37.4c0-2.6-0.1-5.1-0.1-7.7c0-2.3-0.6-3.8-1.8-4.9c-5.3-5.1-10.3-9.3-17.9-8.9
			c-5.3,0.3-10.4-1.7-13.6-5.3c-2.2-2.5-3.3-5.5-2.9-8.5c0.9-7.9,9.7-14.8,18.8-14.8c0.6,0,1.2,0,1.7,0.1l11.9,1.2l-9.5,7.2
			c-1.2,0.9-2.3,1.7-3.4,2.5c-1.3,1-2.6,1.8-3.6,2.7c9.6,0.5,17,4.5,22.5,8.1c9.1,5.9,13.4,13.1,13.1,22
			c-0.4,12.5,1.1,25.3,2.6,37.6c0.4,3.4,0.8,6.9,1.2,10.3c1,9.3,3.4,18.7,5.8,27.8c1,3.7,1.9,7.5,2.8,11.3
			c3.6,15.5,8.6,30.6,14.8,45c7.7,17.8,17.4,34.1,29.1,48.5c5.3,6.5,11.5,12.7,19.1,18.9c5.4,4.4,11.8,8,17.9,11.3
			c12.4,6.7,26.7,9.8,44.9,9.8c5.9,0,12.4-0.3,20.3-1c15.6-1.3,30.2-6.1,43.4-14.1c14.1-8.6,24.6-20.2,33.1-36.6
			c5-9.7,6.2-20.2,6.6-29.3c1-20.4-5-37-17.9-49.5c-12.3-11.9-25.6-17.8-40.7-18.2c-0.9,0-1.8,0-2.7-0.1c-2-0.1-4-0.1-5.9-0.1
			c-4.3,0-9.4,0.3-14.2,2.2c-15.5,6.1-26,15.2-30.5,26.1c-3.8,9.3-3.2,19.9,1.8,31.4c1.5,3.4,3.2,6.7,4.8,9.8
			c3.1,5.9,3.1,11.8-0.1,16.9c3,0.8,4.7,0.5,6.5-1l0.1-0.1c0.8-0.7,2.5-2.1,5.2-2.1c0.9,0,1.8,0.2,2.6,0.5l3.7,1.3l-0.6,3.9
			c-0.8,5.3-4.6,9.1-10,9.9c-3,0.5-5.5,0.7-7.8,0.7c-4.3,0-8.1-0.8-11.6-2.4c-1.4-0.6-5.6-2.6-6.2-6.9c-0.4-2.7,0.6-5.3,3.2-7.7
			c2.8-2.6,3.6-4.8,0.3-9.7c-8.5-12.9-11.6-27.5-9.3-43.4c1-6.5,4.2-13,9.4-19c5.3-6.1,12.5-13.7,22.1-18.9
			c11.5-6.3,23.6-9.4,35.7-9.4c5.8,0,11.8,0.7,17.7,2.2c18.8,4.6,34.5,14.5,46.9,29.3c10.2,12.3,15.8,26.5,16.6,42.4
			c0.7,12.8,0.9,27.7-4.8,42.3c-9.8,25.1-26.2,43.3-50.3,55.8c-14,7.2-28.2,11.9-42.5,13.8C363.1,502.9,356.1,503.3,349.3,503.3z
			 M234.5,417.2c3.2,6.5,6.5,12.5,10.4,18.2c5.8,8.5,12.6,16.8,20.4,24.6c9.1,9.1,19.2,16.4,30.8,22.3c9.4,4.8,19.4,8,30.5,9.8
			c13.7,2.2,28,2.4,42.2,0.5c13.1-1.8,26.4-6.1,39.4-12.8c21.9-11.3,36.9-28,45.8-50.8c5-12.8,4.8-26.5,4.1-38.3
			c-0.6-11.7-4.2-22.4-10.7-31.9c7.6,12.4,11.2,27.3,10.4,43.9c-0.5,10-1.8,21.8-7.7,33.1c-9.3,18-20.9,30.8-36.5,40.3
			c-14.5,8.8-30.5,14-47.5,15.5c-8.2,0.7-15,1-21.1,1c-19.8,0-35.5-3.5-49.4-10.9c-6.5-3.5-13.3-7.3-19.4-12.3
			c-8-6.6-14.7-13.2-20.4-20.3C247.8,439.2,240.7,428.6,234.5,417.2z"/>
	</g>
	<g>
		<path d="M288.9,169.6c-1.3,0-2.5-0.3-3.6-1c-2.6-1.5-3.5-3.4-3.8-4.8c-0.7-3.2,1.1-5.7,2.3-7.3c0.2-0.3,0.4-0.5,0.5-0.8
			c0.1-0.3,0.2-0.9,0.3-1.4l0.1-0.4c2.7-16.4,10.5-23.4,27.8-25.1c0.7-0.1,1.4-0.1,2.1-0.2c4.9-0.4,8-0.8,10.4-3.4l4.4-4.8l3.2,5.7
			c3.8,6.8-0.8,11.3-2.7,13.2l-0.3,0.3c-1.5,1.5-3,2.7-4.5,3.9c-0.4,0.3-0.8,0.7-1.2,1c-0.6,0.5-0.8,0.8-0.9,0.9
			c0,0.1,0.1,0.3,0.2,0.7c2.1,5.5-0.2,11.3-6,15.6c-3.4,2.5-6.6,3.7-9.8,3.7c-2.7,0-5.3-0.9-7.7-2.6c0,0-0.1-0.1-0.1-0.1
			c0,0-0.1,0.1-0.1,0.1l-0.1,0.1c-0.4,0.7-1.3,2.3-3.1,3c-0.2,0.1-0.8,0.5-1.2,0.8C293.5,168.2,291.5,169.6,288.9,169.6z
			 M299.2,153.3c2,0,4,0.7,5.9,2.1c1,0.7,1.8,0.8,2.2,0.8c1.1,0,2.5-0.6,4.2-1.9c1.3-1,3.5-2.9,2.8-4.8c-2.4-6.3,1.1-10.1,3-11.7
			c-0.6,0.1-1.3,0.1-1.9,0.2c-0.7,0.1-1.3,0.1-2,0.2c-13.1,1.3-17.3,4.9-19.3,16.9C296,153.6,298,153.3,299.2,153.3z"/>
	</g>
	<g>
		<path d="M213.6,169.8c-2,0-3.6-1-4.5-1.5c-0.1-0.1-0.3-0.2-0.4-0.2c-1.8-0.8-3.7-2.1-5.3-3.6c-0.9-0.8-1.5-0.9-2-0.9
			c-0.5,0-1.2,0.1-2,0.4c-1.8,0.7-3.7,1-5.6,1c-4.1,0-7.9-1.6-10.7-4.4c-2.9-2.9-4.4-6.9-4.3-11.3l0-1.5l0.9-1.2
			c0.4-0.5,0.5-0.8,0.6-1c-0.7-0.7-2.8-1.9-4.1-2.6l-1-0.6c-1.5-0.8-2.9-2.2-3.8-3.8c-0.1-0.2-0.7-0.7-1.1-1.1
			c-5.3-4.8-4.1-8.4-2.1-10.7c1.8-2.1,3.8-2.5,5.2-2.5c2.7,0,4.6,1.6,5.8,2.7c0.2,0.2,0.6,0.5,0.8,0.7c3.1,0.6,6.2,1.1,9.5,1.6
			c2.2,0.3,4.5,0.7,6.7,1c10.3,1.7,17.4,8.4,19.5,18.3c0.7,3.3,1.9,6.5,3.1,9.9l0.2,0.5c0.1,0.2,0.1,0.3,0.2,0.5
			c1.5,3.6,1.1,6.5-1.4,8.6C216.6,169.3,215.1,169.8,213.6,169.8z M201.4,154.1c2.4,0,4.6,0.7,6.6,2c-0.6-1.8-1.1-3.6-1.5-5.5
			c-1.3-6.1-5.4-9.9-11.9-11c-2.1-0.4-4.3-0.7-6.5-1c-0.5-0.1-1.1-0.2-1.7-0.2c1.5,1.3,2.7,3,3.1,5.1c0.5,2.3,0.1,4.7-1.4,7.2
			c0.2,1.3,0.7,2.4,1.6,3.3c1.5,1.6,4,2,6.4,1.2C198,154.5,199.7,154.1,201.4,154.1z"/>
	</g>
</g>
</svg>
