<?xml version="1.0" encoding="utf-8"?>
<!-- Generator: Adobe Illustrator 19.2.0, SVG Export Plug-In . SVG Version: 6.00 Build 0)  -->
<svg version="1.1" id="Layer_1" xmlns="http://www.w3.org/2000/svg" xmlns:xlink="http://www.w3.org/1999/xlink" x="0px" y="0px"
	 viewBox="0 0 532.9 505.3" style="enable-background:new 0 0 532.9 505.3;" xml:space="preserve">
<g id="Yoga">
	<g>
		<path d="M118.9,505.3c-15.5,0-30.7-2.3-45.2-6.9c-18.1-5.7-29-14-33.5-25.4c-2.7-6.8-2.9-14.4-0.7-23
			c-10.6-0.1-19.3-3.8-26.5-11.3l-3-3.1l-2.6-0.4l-0.2-2.5L0,425.3l6.4-1.9l-0.8-9.8l20.9-3.3c-0.3-3.7-0.5-7.6-0.2-11.5
			c0.2-2.4,1-4.7,2.1-6.8l-0.9-3.6l3.7-0.3c2.2-2.5,4.8-4.5,7.4-5.7c10.2-4.8,19.8-7.2,29.5-7.2c3.4,0,6.9,0.3,10.3,0.9
			c3.8-6.2,7.6-12.8,11.2-19.1c3.6-6.3,7.4-12.9,11.3-19.3c5.6-9.1,11.7-17.4,17.6-25.5c11.2-15.3,17.5-32.2,18.8-50.3
			c1.3-17.4,2.7-37.9,3-58.3c0.4-22.5,4.3-36.3,12.9-46.4c8.8-10.2,21.8-15.7,43.7-18.6c7.5-1,14.7-2.4,21.1-4.2
			c5.4-1.5,11.2-4.7,12.3-16.5c0.6-6.9-3.1-13.3-9.9-17.3c-4.1-2.4-7.3-6.2-8.6-10.4l-1.1-3.5c-2.7-8.3-5.4-16.8-7.4-25.6
			c-1.9-8.4,0.5-13.6,2.8-16.5c1.8-2.3,4.3-3.9,7-4.8C218.8,19,230.3,0.2,261.4,0l0.5,0c30.9,0,42.2,18.7,47.6,39.5
			c2.8,0.9,5.2,2.5,7,4.9c3.3,4.2,4.3,10,2.7,16.7c-2.3,9.7-5.2,21-10,31.7c-2.3,5.2-6.4,8.4-9.7,10.9c-1.3,1-2.8,2.2-3.3,2.9
			c-4.1,5.6-5.3,11.9-3.4,17.4c1.9,5.4,6.5,9.3,12.9,11c7.8,2,15.6,3.5,23.9,5.1c4.5,0.9,9.1,1.8,13.7,2.7
			c20.1,4.3,32.3,18.4,34.4,39.6c1.1,11.2,1.2,23.3,0.3,37c-3.5,56.1,14.1,104.1,54,146.9c0.7,0.8,1.4,1.6,2.1,2.4
			c0.5,0.6,1.1,1.2,1.6,1.8l0.9,0.9c3.9,4.3,5.3,5.5,7,5.5c0.7,0,1.5-0.1,2.4-0.4c2.6-0.7,5.5-1.1,8.5-1.1c8,0,16.2,2.6,22.2,4.5
			c6,1.9,10.1,4.7,13.1,7.7l5.1,0.2l-1.4,4.8c0.7,1.1,1.2,2.2,1.6,3.3c1.4,3.5,2.3,8.4,1.3,14.6l19.4,2.9l0.1,10l16.8,4.5l-26,13.3
			c-9.5,4.8-15,7.6-22.2,8.4c4,13.1,0.1,25.6-11.5,35.9c-13.4,12-29.5,15.6-43.4,17.6c-9.2,1.3-18.7,2-28.3,2
			c-24,0-49.6-4.2-78.1-12.7c-1.7-0.5-3.4-1-5.1-1.5c-13.6-4.1-27.6-8.4-40.9-9.1c-1.8-0.1-3.7-0.1-5.6-0.1
			c-13.9,0-28.6,2.6-42.9,5.1l-1.2,0.2c-12.1,2.1-24.4,4.8-36.4,7.4c-15.4,3.3-31.4,6.8-47.4,9.3
			C135.6,504.6,127.1,505.3,118.9,505.3z M76,426.6L67.2,442c-5.8,10.3-8,18.2-6.1,22.8c2.3,5.7,11.7,9.8,19.3,12.1
			c12.3,3.9,25.3,5.8,38.5,5.8c7.1,0,14.3-0.6,21.6-1.7c15.3-2.4,31-5.7,46.1-9c12.1-2.6,24.7-5.4,37.2-7.6l1.2-0.2
			c15.2-2.7,30.9-5.5,46.8-5.5c2.3,0,4.6,0.1,6.8,0.2c16,0.9,31.4,5.5,46.2,10c1.7,0.5,3.4,1,5,1.5c26.4,7.9,49.9,11.8,71.7,11.8
			c8.5,0,16.9-0.6,25.1-1.8c11.1-1.6,22.6-4.2,31.6-12.1c6.6-5.8,7.2-10.2,2.5-17.8c-0.9-1.5-1.9-3-3.1-4.7
			c-0.6-0.9-1.3-1.9-1.9-2.8l-4.9-7.3l-29.6-12.5c-2.9-1.2-5.5-2.4-8-3.5c-4.7-2.1-8.8-3.9-12.9-5.3c-8.9-3.1-17.9-6.1-26.7-9
			c-9.7-3.2-19.7-6.5-29.5-10c-2.6-0.9-11.5-4.5-14.3-12.6c-1.6-4.6-3.3-9.2-4.9-13.7c-6.6-18.2-13.4-37.1-18-56.4
			c-2.5-10.4,0.1-21.1,2.4-30.6c0.6-2.4,1.1-4.6,1.6-6.7c1.5-7.1,3.6-13.8,5.9-21c1-3.2,2.1-6.6,3.1-10.1l11.3-38l10.3,38.3
			c2.4,8.8,4.3,17.6,6.1,26.1c5,23.3,9.8,45.2,22.6,62.6c12.5,16.9,27,32.5,42.4,48.9c6.9,7.4,14.1,15.1,21.3,23.1l15.2,17l19.3-3
			l0.3-0.5l-19.1-13.4l1.4-7c-2.5,0.6-4.9,0.9-7.2,0.9c-11.8,0-18.6-7.4-23.5-12.8l-0.8-0.9c-0.7-0.7-1.4-1.5-2-2.2
			c-0.6-0.6-1.1-1.3-1.7-1.9c-43.7-46.9-63.9-101.9-60-163.6c0.8-12.5,0.7-23.4-0.3-33.4c-1.1-11.3-6.4-17.6-16.7-19.8
			c-4.4-0.9-8.9-1.8-13.3-2.7c-8.3-1.6-16.8-3.2-25.3-5.5c-13.7-3.6-24-12.8-28.4-25.2c-4.5-12.7-2.1-26.6,6.5-38.3
			c2.4-3.2,5.3-5.5,7.7-7.3c1-0.8,2.5-2,3-2.5c2.5-5.6,4.4-11.6,6-17.4l-2.7,1.2l-2.7-13.8c-5.5-28.6-14.5-30.7-27.7-30.7l-0.3,0
			c-15.1,0.1-23.3,4.8-28.6,31.4l-2.8,14l-2.1-1c1.2,4.2,2.6,8.5,4,12.9l0.6,2c13.8,8.5,21.5,23,20.1,38.3
			c-1.8,18.6-11.9,31.4-28.6,36.1c-7.5,2.1-15.7,3.7-24.3,4.8c-30.2,3.9-36.4,11.2-37,43.1c-0.4,20.9-1.8,41.8-3.1,59.5
			c-1.7,22.4-9.4,43.2-23.1,61.9c-5.7,7.8-11.5,15.8-16.6,24.1c-3.8,6.1-7.4,12.5-11,18.7c-3.8,6.7-7.8,13.6-12,20.4
			c-3.2,5.1-10.2,10.5-17.1,10.5c-1.1,0-2.2-0.1-3.3-0.4c-1.9-0.5-3.7-0.8-5.6-0.9l0,0l1.8,7.6l-20.2,13.6l21,3l5.3-1l-0.9,1.6
			l7.3,1L76,426.6z M350.4,373.9c0.3,0.2,0.7,0.4,1.1,0.5c9.7,3.4,19.6,6.7,29.2,9.9c1.5,0.5,2.9,1,4.4,1.5
			c-11.7-12.7-22.7-25.2-32.9-38.9c-11.9-16.1-18-34.5-22.5-53.2c-1.2,5.3-1.9,10.3-1,14c4.4,18.2,11,36.4,17.3,54.1
			C347.5,365.7,348.9,369.8,350.4,373.9z M100.6,422.5c-2.6,0-5.2-0.6-8-1.8l-13.9-6.2l10-11.5c1.7-2,3.5-4,5.2-5.9
			c3.7-4.2,7.3-8.2,10.6-12.4c4.6-5.7,9.2-11.4,13.8-17.1c13.2-16.3,26.8-33.2,39.3-50.3c10.4-14.3,14.4-32.1,18.6-51
			c0.4-1.7,0.8-3.4,1.1-5.1c0.7-3,1.4-6,2.2-9.8l11.1-48.6l12.2,41.2c1.2,3.9,2.2,7.5,3.1,10.9c1.9,6.8,3.6,12.7,5.6,18.3
			c7.7,21.4,7.4,41-0.9,59.8c-4.2,9.6-7.5,19.7-11,30.3c-2,6.2-4.1,12.5-6.4,18.8c-1.8,4.9-6.3,10.8-12.5,13
			c-20.6,7.5-41.7,14.9-62,22l-12.3,4.3C104.4,422.2,102.5,422.5,100.6,422.5z M193.3,291.1c-3.7,13.7-8.7,27.2-17.5,39.3
			c-12.8,17.6-26.6,34.7-40,51.2c-2.1,2.6-4.3,5.3-6.4,7.9c14.2-5,28.6-10.1,42.7-15.2c0,0,0-0.1,0.1-0.1c2.1-5.9,4.2-12,6.1-18
			c3.5-10.7,7.1-21.7,11.8-32.3C194.7,313.3,195.8,302.9,193.3,291.1z"/>
	</g>
</g>
</svg>
